#!OML:ASF H:\GeneralSubjects\Female5\Project 1\Capture day 1\Session 1\Female5.ASF
:FULLY-SPECIFIED
:DEGREES
244
root 25.8614 14.9867 -0.713048 -344.925 51.2282 -351.397
lowerback 8.19984 0.957464 2.93957
upperback -9.39691 1.40508 -3.97604
thorax -14.9097 0.0998623 -6.44217
lowerneck -18.2547 -12.4274 -10.8508
upperneck 25.0215 -15.4131 3.79155
head 12.4683 -7.42126 0.577377
rclavicle 6.43068e-014 5.36719e-014
rhumerus -60.7565 4.26816 -75.0575
rradius 28.2837
rwrist -7.88065
rhand -18.7579 -24.2146
rfingers 7.12502
rthumb 7.53884 -54.0603
lclavicle 6.43068e-014 5.36719e-014
lhumerus -25.6262 -3.18343 64.8192
lradius 32.74
lwrist -6.59809
lhand -28.2921 38.2569
lfingers 7.12502
lthumb -1.66801 68.2302
rfemur -34.4389 2.25233 21.8174
rtibia 24.1164
rfoot -20.4214 -21.7214
rtoes 10.8243
lfemur 15.3857 -11.397 -32.1883
ltibia 14.1092
lfoot -18.7827 21.0206
ltoes -72.0754
245
root 26.0768 14.9183 -0.414825 -346.74 51.3905 -352.449
lowerback 8.37786 0.85755 3.76919
upperback -9.37164 1.41023 -3.85886
thorax -14.9889 0.0133281 -6.79246
lowerneck -17.7268 -12.3727 -10.5907
upperneck 25.5227 -15.4907 3.72763
head 12.5395 -7.44572 0.523072
rclavicle 5.04416e-014 3.97569e-015
rhumerus -60.6899 3.62201 -74.9734
rradius 27.7704
rwrist -6.95238
rhand -18.957 -23.917
rfingers 7.12502
rthumb 7.34664 -53.7694
lclavicle 5.04416e-014 3.97569e-015
lhumerus -25.1563 -3.13756 65.8945
lradius 33.1051
lwrist -6.68064
lhand -28.4729 38.138
lfingers 7.12502
lthumb -1.84267 68.1098
rfemur -32.6225 2.402 23.2362
rtibia 25.3911
rfoot -21.1186 -21.0946
rtoes 11.7196
lfemur 16.0098 -9.52136 -30.1406
ltibia 16.8746
lfoot -17.1394 18.8581
ltoes -71.6996
246
root 26.3098 14.885 -0.114113 -349.629 51.4673 -354.756
lowerback 8.30433 0.777008 5.35853
upperback -9.25578 1.57816 -3.507
thorax -14.7716 -0.0470277 -7.32316
lowerneck -16.855 -11.9872 -10.3492
upperneck 25.8068 -15.2109 4.03623
head 12.4651 -7.2778 0.702802
rclavicle 2.70347e-014 3.51849e-014
rhumerus -60.8491 2.86704 -74.6551
rradius 28.0974
rwrist -5.80198
rhand -18.9871 -24.7997
rfingers 7.12502
rthumb 7.31757 -54.6532
lclavicle 2.70347e-014 3.51849e-014
lhumerus -24.9609 -3.35944 67.1931
lradius 33.642
lwrist -5.91766
lhand -28.6775 38.3994
lfingers 7.12502
lthumb -2.04024 68.3694
rfemur -30.141 2.14316 25.6898
rtibia 26.1447
rfoot -22.1503 -19.6885
rtoes 11.6328
lfemur 16.4324 -7.24342 -26.9897
ltibia 20.3441
lfoot -14.7783 17.161
ltoes -71.0326
247
root 26.4855 14.8859 0.156592 -353.528 51.2694 -359.293
lowerback 8.33701 0.74425 8.08487
upperback -9.44903 2.06174 -2.72427
thorax -14.9503 -0.0784176 -8.09696
lowerneck -16.4671 -11.7596 -10.0693
upperneck 26.505 -15.0676 4.09523
head 12.6349 -7.17611 0.720725
rclavicle 6.74377e-014 6.95746e-015
rhumerus -60.5353 2.31299 -74.4638
rradius 27.925
rwrist -5.23609
rhand -19.2986 -25.4219
rfingers 7.12502
rthumb 7.01695 -55.2856
lclavicle 6.74377e-014 6.95746e-015
lhumerus -25.1893 -4.08022 68.706
lradius 34.5875
lwrist -4.42506
lhand -28.937 38.5546
lfingers 7.12502
lthumb -2.29089 68.522
rfemur -28.6126 2.32499 29.6819
rtibia 26.9732
rfoot -23.0076 -18.183
rtoes 10.4957
lfemur 15.0723 -4.83849 -21.6302
ltibia 25.1601
lfoot -11.6403 15.8075
ltoes -69.9682
248
root 26.6288 14.899 0.400303 -355.973 50.6988 -362.038
lowerback 8.81498 0.784348 9.53255
upperback -9.67958 2.47816 -2.18051
thorax -15.4701 -0.0476812 -8.41969
lowerneck -16.21 -11.6277 -9.75729
upperneck 27.3231 -15.0365 4.05953
head 12.8787 -7.12444 0.667954
rclavicle -1.32689e-014 1.43125e-014
rhumerus -60.0969 1.59051 -74.0712
rradius 27.9036
rwrist -4.71174
rhand -20.0478 -25.3519
rfingers 7.12502
rthumb 6.29365 -55.2384
lclavicle -1.32689e-014 1.43125e-014
lhumerus -25.6786 -5.10384 70.5387
lradius 35.7376
lwrist -2.87227
lhand -29.5194 38.2026
lfingers 7.12502
lthumb -2.85329 68.1633
rfemur -27.2592 2.44072 32.267
rtibia 27.4781
rfoot -23.3677 -17.2092
rtoes 8.70914
lfemur 12.8234 -2.72511 -17.7539
ltibia 31.0237
lfoot -8.5243 14.8368
ltoes -68.5341
249
root 26.8413 14.9145 0.663716 -357.321 50.3106 -363.029
lowerback 8.38364 0.867382 10.1357
upperback -9.57313 2.66228 -1.95626
thorax -15.0226 0.0258784 -8.50816
lowerneck -15.9365 -11.565 -9.47535
upperneck 28.04 -15.1222 4.12005
head 13.1027 -7.11394 0.636463
rclavicle -7.21588e-014 1.19271e-015
rhumerus -59.532 1.08463 -73.8759
rradius 28.1167
rwrist -4.84814
rhand -21.1045 -24.4155
rfingers 7.12502
rthumb 5.27349 -54.3299
lclavicle -7.21588e-014 1.19271e-015
lhumerus -26.1027 -6.2459 72.6745
lradius 36.8789
lwrist -1.4492
lhand -29.7917 37.7653
lfingers 7.12502
lthumb -3.11628 67.7223
rfemur -24.5113 1.50868 33.5177
rtibia 26.3551
rfoot -23.2686 -15.783
rtoes 8.26721
lfemur 11.4993 -1.44573 -16.1666
ltibia 36.0918
lfoot -5.85627 14.7478
ltoes -67.7067
250
root 27.0159 14.9279 0.906448 -358.496 49.9183 -364.058
lowerback 8.17456 0.963066 10.5236
upperback -9.51635 2.85919 -1.68264
thorax -14.7804 0.11771 -8.4335
lowerneck -15.7319 -11.5999 -9.29319
upperneck 28.7288 -15.3813 4.38077
head 13.3766 -7.1578 0.658328
rclavicle -8.18993e-014 -2.14687e-014
rhumerus -58.8404 1.28511 -74.3628
rradius 28.5846
rwrist -6.32231
rhand -21.4651 -23.9827
rfingers 7.12502
rthumb 4.92525 -53.9055
lclavicle -8.18993e-014 -2.14687e-014
lhumerus -26.4407 -7.25738 74.9671
lradius 38.0922
lwrist -0.645604
lhand -28.9175 37.7108
lfingers 7.12502
lthumb -2.27199 67.6784
rfemur -22.2888 1.27803 34.7037
rtibia 25.4151
rfoot -23.3042 -15.0876
rtoes 7.71394
lfemur 9.41509 -0.401878 -14.5894
ltibia 41.2584
lfoot -3.92655 15.1771
ltoes -66.9991
251
root 27.179 14.9414 1.13488 -359.85 49.595 -365.245
lowerback 8.15127 1.03474 10.9879
upperback -9.44776 3.05838 -1.37502
thorax -14.6443 0.197007 -8.37404
lowerneck -15.3112 -11.6682 -9.21362
upperneck 29.2444 -15.7221 4.80676
head 13.5715 -7.23387 0.75979
rclavicle 3.0265e-014 3.65764e-014
rhumerus -58.389 1.87663 -75.113
rradius 29.7553
rwrist -7.96298
rhand -20.8561 -24.7595
rfingers 7.12502
rthumb 5.51327 -54.6678
lclavicle 3.0265e-014 3.65764e-014
lhumerus -26.7778 -8.24145 77.4086
lradius 39.1515
lwrist -0.969402
lhand -27.7063 37.2073
lfingers 7.12502
lthumb -1.10225 67.1842
rfemur -20.1718 0.809101 35.9659
rtibia 24.65
rfoot -23.1417 -14.6649
rtoes 5.5623
lfemur 7.06259 0.573504 -12.9432
ltibia 46.0528
lfoot -4.69859 16.1019
ltoes -67.5711
252
root 27.3269 14.9609 1.34599 -361.222 49.3414 -366.54
lowerback 8.34852 1.06029 11.5196
upperback -9.48249 3.24429 -1.07344
thorax -14.7809 0.237599 -8.37565
lowerneck -14.6557 -11.7523 -9.01313
upperneck 29.5919 -16.1041 5.16629
head 13.6329 -7.33526 0.830192
rclavicle -1.21756e-014 2.74323e-014
rhumerus -58.0541 2.65601 -75.9873
rradius 31.1688
rwrist -9.23067
rhand -20.2239 -25.1878
rfingers 7.12502
rthumb 6.12363 -55.0793
lclavicle -1.21756e-014 2.74323e-014
lhumerus -27.2346 -9.42826 79.8876
lradius 39.9284
lwrist -2.52156
lhand -27.1449 35.5511
lfingers 7.12502
lthumb -0.560056 65.5301
rfemur -18.4399 0.154239 37.1742
rtibia 24.2482
rfoot -23.368 -13.7558
rtoes 5.08649
lfemur 4.32947 1.06765 -11.5485
ltibia 50.3298
lfoot -6.56598 17.314
ltoes -66.7797
253
root 27.456 14.9845 1.53763 -362.348 49.1145 -367.805
lowerback 8.60935 1.09637 11.9997
upperback -9.58702 3.45779 -0.772642
thorax -15.0401 0.28433 -8.36044
lowerneck -14.0486 -11.8777 -8.83054
upperneck 29.8301 -16.5283 5.53149
head 13.6657 -7.45789 0.897303
rclavicle 1.63997e-014 -3.61788e-014
rhumerus -57.6257 3.83841 -77.1647
rradius 32.7818
rwrist -10.8016
rhand -20.2697 -25.3175
rfingers 7.12502
rthumb 6.07949 -55.2102
lclavicle 1.63997e-014 -3.61788e-014
lhumerus -27.6034 -10.7411 82.33
lradius 40.4628
lwrist -5.19565
lhand -26.5191 33.5212
lfingers 7.12502
lthumb 0.0443476 63.5009
rfemur -17.3419 -0.284097 38.275
rtibia 24.3879
rfoot -24.0755 -12.5483
rtoes 6.01391
lfemur 0.984063 1.07508 -10.5195
ltibia 54.1548
lfoot -9.32783 18.0982
ltoes -65.487
